<svg width="381" height="221" viewBox="0 0 381 221" fill="none" xmlns="http://www.w3.org/2000/svg">
<g clip-path="url(#clip0_8_70)">
<path d="M34.4828 1.22476C34.732 1.41107 34.9319 1.6473 35.0672 1.91549C35.2026 2.18368 35.27 2.47679 35.2641 2.77256V22.5436C35.2641 28.4914 36.6789 33.018 39.6562 35.9968C42.6336 38.9756 46.8885 40.5234 52.5055 40.5234H54.3109C55.0295 40.5255 55.7202 40.7795 56.2431 41.234C56.4981 41.4662 56.699 41.7439 56.8334 42.0503C56.9677 42.3566 57.0327 42.6851 57.0244 43.0155V50.3261C57.0507 50.6758 56.9945 51.0266 56.8596 51.3543C56.7248 51.682 56.5144 51.9789 56.2431 52.2244C55.6996 52.6415 55.0179 52.8751 54.3109 52.8864H52.5055C44.1118 52.8864 36.2355 48.9925 28.8025 41.3314C21.3168 49.012 13.5038 52.8864 5.36353 52.8864H2.91404C2.26426 52.8593 1.64011 52.6448 1.12971 52.2731C0.908888 52.0723 0.737183 51.8304 0.626103 51.5634C0.515023 51.2964 0.467151 51.0107 0.485684 50.7253V42.7526C0.467836 42.4673 0.516028 42.1817 0.627069 41.9148C0.73811 41.648 0.909443 41.4059 1.12971 41.2048C1.62071 40.8226 2.23078 40.5942 2.8718 40.5526H5.35296C10.7165 40.5526 14.8553 39.0632 17.8221 36.026C20.7889 32.9888 22.2037 28.5206 22.2037 22.5728V2.77256C22.251 2.18611 22.5288 1.63573 22.985 1.22476C23.214 1.01863 23.4874 0.85924 23.7875 0.756934C24.0876 0.654628 24.4078 0.611696 24.7271 0.630944H32.6668C32.997 0.614898 33.3273 0.659091 33.639 0.760989C33.9506 0.862887 34.2374 1.02049 34.4828 1.22476Z" fill="white" stroke="black" stroke-miterlimit="10"/>
<path d="M64.6473 59.0874C64.2208 58.5359 64.0155 57.8648 64.0666 57.1891V51.1731C63.9502 50.38 64.1571 49.5753 64.6473 48.9147C64.9421 48.6991 65.2811 48.5406 65.6439 48.4486C66.0067 48.3566 66.3859 48.333 66.7589 48.3793H86.6504V42.8987H70.0002C69.6227 42.9429 69.2394 42.9129 68.8754 42.8105C68.5114 42.7082 68.1751 42.5358 67.8886 42.3049C67.5142 41.7162 67.3344 41.0395 67.3713 40.358V33.7774H66.6533C66.0245 33.7631 65.4248 33.5301 64.9746 33.1252C64.7388 32.9322 64.5529 32.693 64.4305 32.4252C64.3081 32.1574 64.2523 31.8677 64.2672 31.5774V24.6755C64.2442 24.3844 64.2964 24.0923 64.4193 23.8233C64.5423 23.5543 64.7325 23.3159 64.9746 23.1277C65.4323 22.7407 66.0323 22.5285 66.6533 22.5339H67.1073C67.5544 22.5066 67.9902 22.3922 68.3858 22.1982C68.7815 22.0042 69.1279 21.7349 69.4023 21.4083C69.6768 21.0817 69.8729 20.7051 69.9778 20.3034C70.0827 19.9017 70.0939 19.4841 70.0108 19.0781V9.90811C69.9903 9.2965 70.2245 8.70088 70.6654 8.2435C70.8737 8.02044 71.1312 7.84082 71.4206 7.71662C71.7101 7.59241 72.0249 7.52645 72.3442 7.52313H80.5373C80.8572 7.52259 81.1733 7.58682 81.4634 7.7113C81.7535 7.83577 82.0104 8.01745 82.216 8.2435C82.6723 8.69552 82.9251 9.29058 82.9233 9.90811V14.6683H86.6504V9.73289C86.712 9.12092 87.012 8.55026 87.495 8.12667C87.738 7.88079 88.0377 7.6884 88.3721 7.56371C88.7066 7.43902 89.0672 7.38524 89.4272 7.40632H97.5675C97.9172 7.39265 98.2659 7.45011 98.5889 7.5746C98.9119 7.69909 99.2011 7.88756 99.4362 8.12667C99.8655 8.56659 100.096 9.1413 100.08 9.73289V14.6683H118.325C119.094 14.6027 119.865 14.7702 120.521 15.1453C121.004 15.8343 121.209 16.6576 121.102 17.4719V23.4782C121.165 24.1702 120.959 24.8604 120.521 25.4251C120.13 25.9021 119.465 26.0773 118.325 26.0773H100.027V31.5579H116.488C117.287 31.4726 118.092 31.6633 118.747 32.0933C119.178 32.7755 119.359 33.5672 119.264 34.3517V40.3677C119.301 41.0493 119.121 41.726 118.747 42.3146C118.435 42.5518 118.073 42.7269 117.685 42.8291C117.296 42.9313 116.888 42.9583 116.488 42.9085H100.027V48.3793H119.782C120.561 48.2915 121.347 48.4832 121.978 48.9147C122.468 49.5753 122.675 50.38 122.559 51.1731V57.1405C122.61 57.8161 122.404 58.4872 121.978 59.0387C121.685 59.2885 121.337 59.4769 120.958 59.5912C120.579 59.7055 120.178 59.7428 119.782 59.7007H66.7167C66.344 59.7457 65.9652 59.714 65.6074 59.608C65.2496 59.502 64.9217 59.3242 64.6473 59.0874ZM76.4618 31.5287H86.6504V25.9897H81.2868C80.7459 27.3543 79.8883 28.5935 78.774 29.6207C78.0865 30.329 77.3104 30.9597 76.4618 31.4995V31.5287Z" fill="white" stroke="black" stroke-miterlimit="10"/>
<path d="M156.461 57.2764C156.385 57.9519 156.095 58.5918 155.627 59.1162C155.387 59.3469 155.096 59.526 154.773 59.6404C154.45 59.7549 154.103 59.8019 153.758 59.7782H149.429C148.561 59.7786 147.71 59.5488 146.979 59.1162C146.708 58.8833 146.496 58.597 146.361 58.2785C146.226 57.96 146.17 57.6175 146.198 57.2764V56.3029L130.699 57.2764C129.474 57.3932 128.893 56.8578 128.893 55.787V53.0516C128.865 52.8235 128.891 52.5924 128.971 52.3748C129.05 52.1572 129.181 51.9585 129.353 51.7929C129.526 51.6273 129.736 51.4989 129.969 51.417C130.201 51.335 130.451 51.3015 130.699 51.3188L133.159 51.1436V35.3054C133.159 34.3319 132.642 33.816 131.67 33.816H130.994C129.569 33.816 128.883 33.2806 128.883 32.2098V29.708C128.883 28.5203 129.59 27.9265 130.994 27.8097H185.041C185.287 27.775 185.538 27.7941 185.775 27.8654C186.011 27.9368 186.226 28.0584 186.401 28.2205C186.577 28.3826 186.709 28.5806 186.786 28.7984C186.864 29.0162 186.885 29.2478 186.847 29.4743V32.2098C186.847 33.2806 186.266 33.816 185.041 33.816H158.53C157.115 33.816 156.418 34.4779 156.418 35.7629L156.461 57.2764ZM179.9 8.34048C180.247 8.7046 180.511 9.12896 180.678 9.58866C180.845 10.0484 180.911 10.5341 180.871 11.0175V22.5141C180.921 23.0071 180.861 23.5043 180.694 23.9749C180.527 24.4454 180.256 24.8793 179.9 25.2495C178.94 25.9227 177.743 26.242 176.542 26.1451H139.293C138.05 26.2683 136.803 25.9478 135.809 25.2495C135.45 24.8806 135.179 24.4469 135.011 23.976C134.844 23.5051 134.785 23.0072 134.838 22.5141V11.0175C134.796 10.534 134.86 10.0476 135.027 9.58761C135.194 9.12759 135.46 8.70339 135.809 8.34048C136.453 7.74667 137.614 7.5033 139.293 7.5033H176.542C177.735 7.39064 178.931 7.68884 179.9 8.34048ZM143.295 33.777V35.3248H146.198V33.777H143.295ZM143.295 41.3408V42.8886H146.198V41.3408H143.295ZM143.295 48.9046V50.4524L146.198 50.2675V48.9046H143.295ZM168.212 12.5848H147.486C146.779 12.5848 146.43 12.8865 146.43 13.4804C146.43 14.0742 146.821 14.3175 147.486 14.3175H168.212C168.93 14.3175 169.268 14.0158 169.268 13.4804C169.268 12.9449 168.93 12.6237 168.212 12.6237V12.5848ZM168.212 19.3114H147.486C146.779 19.3114 146.43 19.6132 146.43 20.207C146.43 20.8008 146.821 21.0442 147.486 21.0442H168.212C168.93 21.0442 169.268 20.8008 169.268 20.207C169.268 19.6132 168.93 19.3503 168.212 19.3503V19.3114ZM160.726 59.7392C160.413 59.7375 160.103 59.6781 159.814 59.5644C159.526 59.4507 159.265 59.2851 159.047 59.0773C158.813 58.8986 158.626 58.6717 158.503 58.4148C158.381 58.1579 158.325 57.878 158.34 57.5976V51.9808C158.324 51.6988 158.379 51.4173 158.502 51.1587C158.625 50.9001 158.812 50.6716 159.047 50.4914C159.253 50.2843 159.502 50.1186 159.78 50.0047C160.058 49.8908 160.359 49.8311 160.663 49.8294H163.376C162.174 48.6451 161.053 47.3934 160.019 46.0816C159.237 45.1081 159.111 44.3586 159.501 43.8816C159.811 43.6171 160.179 43.4168 160.579 43.2942C160.98 43.1716 161.404 43.1296 161.824 43.1709H167.631C168.434 43.1423 169.22 43.3963 169.827 43.8816C170.155 44.1736 170.883 44.855 172.087 45.8285C172.878 44.8478 173.551 43.7901 174.093 42.6745C174.42 41.8957 174.156 41.5355 173.248 41.5355H161.37C161.037 41.5452 160.705 41.4925 160.395 41.3803C160.084 41.2682 159.802 41.0991 159.565 40.8833C159.191 40.463 158.986 39.9371 158.984 39.3939V37.5735C158.986 37.0479 159.192 36.5402 159.565 36.1425C159.802 35.9267 160.084 35.7576 160.395 35.6455C160.705 35.5334 161.037 35.4806 161.37 35.4903H181.906C182.355 35.436 182.812 35.4714 183.246 35.594C183.679 35.7166 184.079 35.9236 184.419 36.201C184.864 36.8577 185.067 37.6291 184.999 38.401V39.6178C185.04 43.2295 183.967 46.7776 181.906 49.8489H184.419C185.087 49.7915 185.755 49.9611 186.298 50.3259C186.52 50.5516 186.692 50.8159 186.803 51.1033C186.913 51.3908 186.96 51.6957 186.942 52.0002V57.656C186.979 58.2308 186.796 58.7994 186.425 59.2622C186.167 59.4613 185.869 59.6111 185.548 59.703C185.228 59.7949 184.89 59.8271 184.556 59.7976H182.814C179.46 59.7441 176.174 58.9246 173.248 57.4127C169.966 59.0092 166.305 59.8287 162.595 59.7976L160.726 59.7392Z" fill="white" stroke="black" stroke-miterlimit="10"/>
<path d="M196.698 17.0046C195.642 17.3063 194.892 17.1895 194.438 16.7709C194.027 16.302 193.82 15.7085 193.857 15.1063V9.20714C193.772 8.88911 193.768 8.55694 193.847 8.23737C193.926 7.91781 194.085 7.61978 194.311 7.36729C195.019 6.84852 195.83 6.46168 196.698 6.22835L207.256 3.49292C208.312 3.13274 209.124 3.20088 209.578 3.60973C209.804 3.88467 209.966 4.19918 210.055 4.53397C210.144 4.86875 210.158 5.21676 210.096 5.55666V11.0957C210.179 11.8405 209.948 12.5863 209.452 13.1789C208.827 13.6777 208.069 14.0138 207.256 14.1523L196.698 17.0046ZM207.678 53.4996C207.726 54.1253 207.568 54.7497 207.224 55.2908C206.897 55.6997 206.253 55.8846 205.112 55.8846H202.209C201.831 55.9289 201.448 55.8988 201.084 55.7964C200.72 55.6941 200.384 55.5218 200.097 55.2908C199.675 54.7783 199.469 54.1418 199.517 53.4996V29.1631L196.677 29.8153C195.621 29.9905 194.808 29.9321 194.417 29.5233C194.004 29.0741 193.796 28.4949 193.836 27.9073V22.0958C193.775 21.3613 193.979 20.6286 194.417 20.0126C195.051 19.4922 195.837 19.1539 196.677 19.0391L207.235 16.3621C207.632 16.275 208.045 16.2674 208.445 16.3396C208.846 16.4118 209.225 16.5622 209.557 16.7807C209.787 17.0533 209.952 17.3677 210.042 17.7032C210.131 18.0387 210.142 18.3878 210.075 18.7276V23.7799C210.112 24.6438 210.001 25.5078 209.747 26.3401C209.557 26.8755 208.85 27.3135 207.562 27.5958L207.678 53.4996ZM244.019 46.004C245.495 46.4959 247.044 46.775 248.612 46.8314C249.33 46.8464 250.017 47.1026 250.544 47.5518C251.014 48.0196 251.267 48.6375 251.251 49.2748V52.9058C251.345 53.7163 251.14 54.5321 250.671 55.2227C250.373 55.4321 250.032 55.5826 249.669 55.6647C249.306 55.7468 248.928 55.7587 248.559 55.6997C244.526 55.7844 240.519 55.0742 236.808 53.6165C232.763 55.1653 228.398 55.8765 224.022 55.6997C223.67 55.7479 223.311 55.7305 222.967 55.6486C222.622 55.5666 222.299 55.4218 222.016 55.2227C221.525 54.539 221.298 53.7229 221.372 52.9058V49.2748C221.412 48.6371 221.684 48.0303 222.143 47.5518C222.641 47.0915 223.317 46.8324 224.022 46.8314C225.671 46.7753 227.313 46.5962 228.932 46.296C228.037 44.5718 227.302 42.7807 226.735 40.942H221.245C221.045 47.7562 219.957 51.8934 218.014 53.3828C217.312 54.0854 216.45 54.6365 215.49 54.9966C214.53 55.3567 213.496 55.517 212.461 55.466C211.405 55.466 210.719 55.3492 210.349 54.9306C209.927 54.3974 209.742 53.7358 209.832 53.081V49.0996C209.809 48.4493 210.041 47.8131 210.486 47.3084C210.739 47.0585 211.05 46.8647 211.396 46.7416C211.741 46.6186 212.113 46.5694 212.482 46.5978C212.957 46.6468 213.438 46.5648 213.862 46.3621C214.287 46.1593 214.637 45.845 214.868 45.4588C215.324 44.2967 215.521 43.0618 215.449 41.8278V34.8092C215.364 34.1813 215.525 33.5462 215.903 33.018C216.393 32.7037 216.987 32.5589 217.582 32.6092H244.188C245.036 32.5241 245.888 32.736 246.574 33.203C246.816 33.4408 247.003 33.7211 247.125 34.0272C247.246 34.3333 247.3 34.6589 247.282 34.9844C247.187 39.8128 246.078 43.4438 244.019 46.004ZM212.345 29.4551C211.93 28.9876 211.723 28.393 211.764 27.7905V23.556C211.658 22.7633 211.864 21.9621 212.345 21.2975C212.966 20.9138 213.713 20.7449 214.456 20.8205H219.102L216.135 17.4816C215.637 16.9502 215.341 16.2839 215.29 15.5833V7.96111C215.272 7.74846 215.31 7.53493 215.4 7.33845C215.49 7.14196 215.63 6.96826 215.808 6.8319C216.173 6.61803 216.6 6.51268 217.033 6.53012C217.906 6.84868 218.682 7.36009 219.292 8.01951L222.713 11.5337L228.984 4.71948C229.462 4.2153 230.03 3.79054 230.663 3.46372C231.12 3.32913 231.603 3.28925 232.078 3.34691H238.413C238.7 3.31791 238.991 3.37036 239.246 3.4973C239.5 3.62425 239.707 3.81965 239.838 4.05753C239.956 4.35738 240.005 4.67628 239.983 4.99445C239.961 5.31262 239.869 5.62326 239.711 5.9071L228.414 17.5108L231.444 20.6064L243.65 7.95138C244.272 7.30446 245.044 6.79534 245.909 6.46198C246.342 6.43926 246.771 6.54503 247.134 6.76375C247.331 6.88671 247.49 7.0564 247.592 7.25506C247.694 7.45372 247.736 7.67404 247.714 7.89297V15.5152C247.642 16.2218 247.324 16.8879 246.806 17.4134L243.84 20.7524H248.358C249.128 20.6824 249.9 20.8502 250.555 21.2294C250.976 21.9165 251.177 22.6995 251.135 23.4878V27.479C251.189 28.162 251.008 28.8431 250.618 29.4259C249.977 29.8871 249.168 30.1032 248.358 30.0295H214.467C214.095 30.065 213.72 30.0317 213.363 29.9314C213.006 29.831 212.674 29.6658 212.387 29.4454L212.345 29.4551ZM239.796 40.9517H233.144C234.075 42.1366 235.323 43.079 236.766 43.6871C238.037 43.024 239.111 42.0809 239.891 40.942L239.796 40.9517Z" fill="white" stroke="black" stroke-miterlimit="10"/>
<path d="M259.93 35.8312C259.573 35.2392 259.449 34.5509 259.582 33.8843L260.067 28.3064C260.022 27.5319 260.272 26.7673 260.775 26.1453C261.424 25.7764 262.2 25.6445 262.95 25.7754L314.051 29.6108C314.826 29.5856 315.583 29.8366 316.163 30.3117C316.527 31.007 316.662 31.7852 316.553 32.5506L316.057 38.1286C316.071 38.8016 315.832 39.4585 315.381 39.9879C315.047 40.1991 314.67 40.3451 314.272 40.4171C313.875 40.489 313.465 40.4854 313.069 40.4065L261.978 36.571C261.6 36.5858 261.222 36.5276 260.87 36.4002C260.517 36.2729 260.197 36.0791 259.93 35.8312Z" fill="white" stroke="black" stroke-miterlimit="10"/>
<path d="M344.501 36.2205C344.891 36.7192 345.075 37.3306 345.018 37.9435V45.0303C346.044 43.0667 346.53 40.9002 346.433 38.7223V34.9063H345.324C344.942 34.9467 344.555 34.9092 344.19 34.7965C343.825 34.6838 343.491 34.4987 343.213 34.2541C342.772 33.7275 342.565 33.0666 342.632 32.4045V31.4311C342.524 30.6537 342.731 29.8669 343.213 29.2213C343.816 28.7993 344.572 28.6075 345.324 28.6859H377.738C378.517 28.593 379.306 28.7852 379.934 29.2213C380.416 29.8669 380.622 30.6537 380.514 31.4311V32.4045C380.582 33.0666 380.374 33.7275 379.934 34.2541C379.644 34.5072 379.296 34.6972 378.916 34.8101C378.536 34.923 378.133 34.9558 377.738 34.9063H354.119V36.2205H376.65C377.429 36.1327 378.216 36.3244 378.846 36.7559C379.327 37.3981 379.534 38.1816 379.427 38.9559V55.9233C379.459 56.1959 379.423 56.4716 379.322 56.7296C379.222 56.9876 379.059 57.2212 378.846 57.4127C378.216 57.7722 377.47 57.9201 376.735 57.8313H374.338C373.604 57.8989 372.865 57.7525 372.226 57.4127C372.028 57.2143 371.88 56.9779 371.792 56.7204C371.704 56.4629 371.68 56.1907 371.719 55.9233V42.4117H370.231V51.6401C370.126 52.223 369.831 52.7626 369.386 53.1879C369.006 53.6649 368.098 53.8401 366.747 53.8401C366.28 53.9007 365.805 53.8742 365.35 53.7621C364.894 53.6501 364.468 53.4548 364.097 53.1879C363.873 52.9865 363.695 52.7458 363.573 52.48C363.452 52.2141 363.389 51.9286 363.389 51.6401V42.4117H361.9V51.6401C361.793 52.2204 361.503 52.7587 361.066 53.1879C360.676 53.6649 359.768 53.8401 358.416 53.8401C357.95 53.8996 357.475 53.8725 357.02 53.7605C356.565 53.6485 356.139 53.4538 355.766 53.1879C355.542 52.9865 355.364 52.7458 355.243 52.48C355.121 52.2141 355.059 51.9286 355.059 51.6401V42.4117H354.087C353.834 46.3055 352.799 49.2259 351.057 51.1729C350.098 52.3096 348.86 53.2207 347.445 53.8316C346.03 54.4424 344.478 54.7355 342.917 54.687H340.594C339.967 54.6575 339.372 54.4229 338.915 54.0251C338.689 53.8396 338.509 53.6115 338.387 53.3562C338.265 53.1009 338.204 52.8244 338.208 52.5454V48.9047C338.198 48.7467 338.219 48.5883 338.271 48.4374L325.813 52.7207C324.577 52.9543 323.701 52.8959 323.416 52.4189C323.192 52.1176 323.037 51.7778 322.959 51.4199C322.881 51.062 322.882 50.6932 322.962 50.3357V44.9816C322.867 44.6464 322.846 44.2968 322.902 43.9541C322.957 43.6113 323.088 43.2826 323.285 42.9877C323.483 42.6928 323.743 42.4379 324.05 42.2385C324.358 42.0391 324.706 41.8993 325.074 41.8276L330.754 39.8807V27.5275H326.32C325.937 27.5679 325.55 27.5304 325.185 27.4177C324.82 27.305 324.487 27.1198 324.208 26.8753C323.768 26.3487 323.56 25.6877 323.627 25.0257V19.6716C323.521 18.8944 323.728 18.1082 324.208 17.4619C324.811 17.0399 325.567 16.8481 326.32 16.9265H330.775V7.82462C330.78 7.52201 330.852 7.22354 330.986 6.9474C331.121 6.67125 331.315 6.42322 331.556 6.21841C331.818 5.98225 332.131 5.80087 332.476 5.68663C332.82 5.57239 333.187 5.52798 333.552 5.55645H336.466C336.801 5.53875 337.136 5.58883 337.448 5.70318C337.76 5.81753 338.041 5.99338 338.271 6.21841C338.72 6.6707 339.03 7.22515 339.169 7.82462V16.9265H342.6C343.399 16.8476 344.201 17.0378 344.86 17.4619C345.274 18.132 345.451 18.9044 345.366 19.6716V25.0159C345.417 25.6667 345.24 26.3152 344.86 26.8655C344.552 27.1124 344.193 27.2979 343.804 27.4101C343.415 27.5224 343.005 27.5591 342.6 27.5178H339.169V37.0382L342.21 35.9674C343.339 35.724 344.11 35.8019 344.501 36.2205ZM374.465 5.54672C375.411 5.48808 376.355 5.69874 377.167 6.15026C377.885 6.55912 378.223 7.51311 378.223 8.88569V23.7699C378.277 24.2541 378.218 24.7433 378.05 25.2049C377.883 25.6665 377.611 26.0899 377.252 26.4469C376.479 27.0398 375.49 27.3391 374.486 27.2841H350.603C349.566 27.3454 348.539 27.0698 347.7 26.5053C347.028 25.7575 346.702 24.796 346.792 23.8283V8.77862C346.723 8.32095 346.763 7.85501 346.909 7.41299C347.055 6.97097 347.303 6.56341 347.636 6.21841C348.496 5.70385 349.519 5.47071 350.54 5.55645L374.465 5.54672ZM356.579 13.3344H368.394V11.3875H356.579V13.3344ZM356.579 21.2487H368.394V19.3017H356.579V21.2487Z" fill="white" stroke="black" stroke-miterlimit="10"/>
<path d="M75.4905 96.9255C74.961 96.2486 74.7069 95.4215 74.7726 94.5892V91.4449C74.6417 90.4921 74.8974 89.5282 75.4905 88.7387C76.2077 88.2189 77.1183 87.9811 78.0245 88.0767H80.0094V86.0325C80.1035 85.3093 80.435 84.63 80.9596 84.0855C81.287 83.8022 81.6749 83.5848 82.0984 83.4474C82.522 83.3099 82.972 83.2554 83.4197 83.2873H88.8888C89.3112 83.2682 89.7334 83.3292 90.1293 83.4665C90.5252 83.6038 90.8863 83.8145 91.1904 84.0855C91.5107 84.3186 91.7714 84.6139 91.9539 84.9504C92.1364 85.2869 92.2362 85.6563 92.2462 86.0325V88.0767H98.9823V86.0325C98.9922 85.666 99.0814 85.305 99.2446 84.9707C99.4078 84.6364 99.6416 84.3354 99.9326 84.0855C100.258 83.7991 100.645 83.5798 101.069 83.4422C101.493 83.3045 101.945 83.2517 102.393 83.2873H107.767C108.201 83.2628 108.636 83.3211 109.045 83.4584C109.453 83.5957 109.827 83.8092 110.142 84.0855C110.433 84.3354 110.667 84.6364 110.83 84.9707C110.993 85.305 111.083 85.666 111.092 86.0325V88.0767H112.835C113.817 87.9753 114.805 88.211 115.611 88.7387C116.132 89.5547 116.354 90.5035 116.245 91.4449V94.5892C116.298 95.4093 116.076 96.2247 115.611 96.9255C114.817 97.4799 113.827 97.7403 112.835 97.6556H111.092V125.808H112.835C113.804 125.724 114.777 125.929 115.611 126.392C116.122 127.212 116.343 128.158 116.245 129.098V132.233C116.309 133.057 116.087 133.879 115.611 134.579C115.227 134.868 114.782 135.082 114.305 135.208C113.827 135.333 113.327 135.368 112.835 135.309H110.776L115.611 144.372C115.744 144.744 115.77 145.141 115.686 145.525C115.603 145.909 115.414 146.266 115.136 146.562C114.827 146.851 114.456 147.079 114.048 147.232C113.639 147.384 113.201 147.458 112.761 147.448H107.999C106.257 147.448 105.148 147.302 104.673 146.854C103.905 146.12 103.261 145.283 102.762 144.372L97.8526 135.309H93.1754L88.2553 144.372C87.7857 145.296 87.1423 146.137 86.3548 146.854C85.8797 147.302 84.7711 147.448 83.0185 147.448H78.2673C77.8368 147.464 77.4078 147.393 77.0102 147.24C76.6126 147.087 76.2561 146.856 75.9656 146.562C75.6522 146.286 75.4385 145.928 75.3535 145.536C75.2685 145.144 75.3164 144.738 75.4905 144.372L80.2522 135.309H78.0245C77.57 135.364 77.108 135.327 76.6705 135.201C76.233 135.075 75.8304 134.862 75.4905 134.579C74.951 133.903 74.6959 133.069 74.7726 132.233V129.098C74.6554 128.146 74.9099 127.187 75.4905 126.392C76.2368 125.934 77.132 125.727 78.0245 125.808H80.0094V97.6556H78.0245C77.5707 97.6946 77.1131 97.6502 76.6781 97.5248C76.2431 97.3995 75.8394 97.1958 75.4905 96.9255ZM92.2252 100.654H98.9612V97.6556H92.2252V100.654ZM92.2252 113.231H98.9612V110.233H92.2252V113.231ZM92.2252 125.808H98.9612V122.81H92.2252V125.808ZM138.449 147.448C137.538 147.543 136.619 147.361 135.83 146.932C135.598 146.681 135.422 146.39 135.314 146.076C135.205 145.762 135.165 145.431 135.197 145.102V128.797H129.918V145.102C129.949 145.431 129.909 145.762 129.801 146.076C129.692 146.39 129.516 146.681 129.284 146.932C128.471 147.369 127.526 147.551 126.592 147.448H121.672C120.761 147.543 119.842 147.361 119.053 146.932C118.588 146.423 118.361 145.765 118.42 145.102V86.344C118.32 85.3813 118.541 84.4136 119.053 83.5696C119.834 83.1166 120.753 82.9114 121.672 82.9855H143.242C144.162 82.8843 145.092 83.0916 145.86 83.5696C146.441 84.3919 146.718 85.3648 146.652 86.344V145.122C146.711 145.785 146.484 146.443 146.019 146.952C145.202 147.388 144.254 147.569 143.316 147.468L138.449 147.448ZM135.218 96.1954H129.939V99.1937H135.218V96.1954ZM135.218 112.501H129.939V115.548H135.218V112.501Z" fill="white" stroke="black" stroke-miterlimit="10"/>
<path d="M199.084 87.8045C199.396 88.0381 199.645 88.3359 199.81 88.6739C199.975 89.012 200.051 89.381 200.034 89.7514V93.4797H222.713C223.114 93.4703 223.511 93.5442 223.877 93.6959C224.243 93.8475 224.566 94.0731 224.824 94.3559C225.388 94.9099 225.701 95.6408 225.701 96.4001V105.103C225.7 105.457 225.622 105.808 225.471 106.134C225.321 106.46 225.101 106.755 224.824 107.001C224.242 107.475 223.49 107.735 222.713 107.731H200.034V112.599H218.194C218.984 112.674 219.718 113.012 220.258 113.549C220.798 114.086 221.108 114.787 221.129 115.519V124.222C221.154 124.579 221.087 124.937 220.935 125.267C220.783 125.596 220.549 125.888 220.253 126.12C219.99 126.38 219.671 126.587 219.317 126.726C218.962 126.865 218.579 126.934 218.194 126.928H205.271C206.766 129.114 208.853 130.904 211.326 132.121C213.8 133.338 216.574 133.941 219.377 133.869H223.663C224.575 133.859 225.455 134.173 226.123 134.745C226.429 135.021 226.671 135.351 226.834 135.716C226.997 136.081 227.079 136.472 227.073 136.867V145.862C227.107 146.303 227.04 146.746 226.876 147.162C226.712 147.578 226.456 147.957 226.123 148.276C225.418 148.772 224.55 149.03 223.663 149.006H219.377C212.165 149.006 205.651 145.112 200.034 137.383V148.86C200.044 149.222 199.963 149.582 199.799 149.911C199.634 150.24 199.389 150.53 199.084 150.758C198.785 151.009 198.435 151.203 198.055 151.328C197.674 151.454 197.27 151.508 196.867 151.488H187.185C186.781 151.515 186.375 151.464 185.993 151.338C185.611 151.212 185.262 151.015 184.968 150.758C184.408 150.255 184.069 149.579 184.017 148.86V137.451C177.989 145.122 171.485 148.928 164.517 148.928H159.987C159.213 148.915 158.468 148.657 157.876 148.198C157.599 147.946 157.384 147.641 157.248 147.305C157.111 146.969 157.055 146.609 157.084 146.251V136.419C157.061 136.081 157.12 135.742 157.257 135.427C157.394 135.112 157.605 134.829 157.876 134.599C158.459 134.116 159.204 133.831 159.987 133.791H164.517C167.333 133.876 170.125 133.281 172.614 132.063C175.104 130.846 177.204 129.048 178.707 126.85H165.942C165.568 126.849 165.199 126.777 164.858 126.638C164.516 126.499 164.209 126.296 163.957 126.042C163.66 125.811 163.427 125.518 163.275 125.189C163.123 124.859 163.056 124.501 163.081 124.144V115.441C163.102 114.72 163.402 114.029 163.926 113.494C164.451 112.958 165.166 112.613 165.942 112.521H184.017V107.653H161.423C160.69 107.629 159.988 107.371 159.438 106.923C159.162 106.677 158.942 106.382 158.791 106.056C158.641 105.73 158.563 105.379 158.562 105.025V96.3222C158.562 95.5629 158.875 94.832 159.438 94.278C159.68 94.0079 159.983 93.7896 160.326 93.6383C160.669 93.487 161.043 93.4063 161.423 93.4019H184.017V89.6735C184.056 88.9372 184.396 88.2417 184.968 87.7266C185.264 87.4718 185.613 87.2756 185.994 87.1501C186.376 87.0245 186.781 86.9723 187.185 86.9965H196.867C197.276 86.9893 197.682 87.0569 198.063 87.1956C198.444 87.3343 198.791 87.5413 199.084 87.8045Z" fill="white" stroke="black" stroke-miterlimit="10"/>
<path d="M240.799 98.0255C240.261 97.3525 240.006 96.5224 240.081 95.6892V92.5449C239.964 91.5929 240.218 90.6334 240.799 89.8387C241.545 89.3803 242.44 89.1739 243.333 89.2546H257.058V85.9643C257.067 85.5966 257.156 85.2344 257.321 84.8996C257.486 84.5649 257.724 84.2647 258.019 84.0174C258.342 83.7305 258.728 83.5102 259.15 83.3709C259.572 83.2316 260.022 83.1766 260.469 83.2094H270.362C270.773 83.1873 271.184 83.2481 271.567 83.3876C271.95 83.5272 272.295 83.7421 272.579 84.0174C273.114 84.5481 273.421 85.24 273.445 85.9643V89.2644H280.835C281.805 89.1801 282.778 89.3848 283.612 89.8485C284.087 90.2865 284.246 91.2308 284.246 92.5547V94.083C285.552 91.7668 286.46 89.2775 286.938 86.7042C286.934 85.9876 287.216 85.2947 287.73 84.7572C288.276 84.2003 289.03 83.8529 289.841 83.7838H297.369C298.167 83.8475 298.906 84.197 299.428 84.7572C299.973 85.283 300.285 85.9772 300.304 86.7042C299.983 92.0853 298.356 97.3314 295.543 102.056H301.329C302.287 101.938 303.258 102.172 304.031 102.708C304.621 103.499 304.873 104.462 304.739 105.414V108.558C304.819 109.394 304.567 110.227 304.031 110.904C303.63 111.411 302.68 111.635 301.329 111.635H287.255C286.144 112.595 284.978 113.499 283.76 114.341H298.235C299.191 114.224 300.157 114.458 300.927 114.993C301.517 115.784 301.769 116.748 301.635 117.699V120.843C301.717 121.676 301.465 122.507 300.927 123.18C300.526 123.696 299.576 123.91 298.235 123.91H270.784V126.11H293.938C294.882 126 295.838 126.207 296.63 126.694C297.211 127.489 297.465 128.448 297.348 129.4V144.314C297.415 145.122 297.16 145.925 296.63 146.572C296.267 146.872 295.84 147.099 295.376 147.238C294.913 147.377 294.423 147.425 293.938 147.38H273.656C273.182 147.427 272.703 147.38 272.251 147.24C271.799 147.101 271.385 146.873 271.037 146.572C270.572 145.9 270.35 145.109 270.404 144.314V141.169C270.298 140.203 270.519 139.231 271.037 138.385C271.818 137.932 272.737 137.727 273.656 137.801H280.92V135.601H257.555C257.087 135.655 256.612 135.618 256.161 135.492C255.71 135.366 255.293 135.155 254.936 134.871C254.428 134.184 254.203 133.352 254.303 132.525V126.684C248.479 127.86 242.537 128.47 236.576 128.505C235.813 128.454 235.089 128.174 234.517 127.706C234.23 127.483 234.003 127.202 233.853 126.884C233.703 126.567 233.634 126.222 233.651 125.876V120.25C233.634 119.904 233.703 119.559 233.853 119.242C234.003 118.924 234.23 118.643 234.517 118.42C235.091 117.954 235.813 117.67 236.576 117.612C245.514 117.311 254.284 115.281 262.316 111.654H237.093C235.826 111.654 234.981 111.43 234.559 110.924C234.023 110.247 233.772 109.413 233.852 108.578V105.434C233.718 104.482 233.97 103.518 234.559 102.727C234.912 102.466 235.318 102.274 235.754 102.162C236.189 102.05 236.645 102.02 237.093 102.075H256.995V98.7848H243.269C242.823 98.8269 242.372 98.781 241.946 98.6501C241.52 98.5192 241.129 98.3063 240.799 98.0255ZM273.529 98.7556V102.046H277.573C278.771 101.026 279.886 99.9263 280.909 98.7556H273.529Z" fill="white" stroke="black" stroke-miterlimit="10"/>
<path d="M374.285 191.877C372.743 192.903 370.972 193.598 369.101 193.911C367.343 194.166 365.602 194.51 363.885 194.943C363.131 195.132 362.461 195.536 361.972 196.097C361.483 196.659 361.199 197.349 361.161 198.068L360.443 203.023C360.444 203.151 360.412 203.277 360.35 203.392C360.289 203.506 360.199 203.606 360.089 203.684C359.978 203.761 359.85 203.814 359.713 203.838C359.577 203.861 359.437 203.856 359.303 203.821L351.142 202.848C351.007 202.844 350.875 202.812 350.756 202.754C350.638 202.695 350.535 202.613 350.456 202.512C350.378 202.411 350.325 202.295 350.303 202.173C350.281 202.05 350.29 201.925 350.329 201.806L351.384 194.534C351.743 192.062 352.651 190.494 354.056 189.881C355.454 189.289 356.931 188.87 358.448 188.635C359.771 188.437 361.062 188.087 362.291 187.594C362.759 187.432 363.172 187.157 363.484 186.797C363.796 186.437 363.997 186.006 364.065 185.549C364.139 185.103 364.097 184.648 363.943 184.219C363.789 183.791 363.526 183.403 363.178 183.086C362.055 182.169 360.622 181.64 359.124 181.587C357.98 181.418 356.811 181.465 355.688 181.724C354.565 181.984 353.51 182.45 352.588 183.096C350.751 184.391 349.59 186.503 349.178 189.336C349.093 189.949 348.766 190.232 348.122 190.154L338.789 189.005C338.648 189.002 338.51 188.97 338.384 188.913C338.258 188.855 338.147 188.773 338.058 188.672C337.97 188.571 337.906 188.454 337.872 188.328C337.838 188.203 337.833 188.071 337.86 187.944C338.552 183.099 341.296 178.703 345.493 175.717C347.459 174.195 349.747 173.067 352.212 172.405C354.677 171.743 357.265 171.561 359.81 171.872C365.522 172.573 369.925 174.374 373.145 177.285C376.365 180.195 377.738 183.252 377.273 186.503C376.925 188.995 375.943 190.767 374.285 191.877ZM359.504 215.162C357.568 215.794 355.497 215.993 353.461 215.743C351.425 215.492 349.483 214.799 347.795 213.721C347.193 213.307 346.722 212.752 346.431 212.113C346.14 211.475 346.038 210.777 346.137 210.09C346.237 209.416 346.534 208.78 346.995 208.248C347.456 207.717 348.064 207.311 348.756 207.073C350.695 206.462 352.762 206.274 354.794 206.524C356.825 206.774 358.766 207.455 360.464 208.513C361.056 208.919 361.523 209.46 361.817 210.084C362.112 210.707 362.224 211.391 362.143 212.066C362.034 212.751 361.732 213.397 361.267 213.941C360.802 214.484 360.19 214.905 359.493 215.162H359.504Z" fill="white" stroke="black" stroke-miterlimit="10"/>
<path d="M77.1481 180.458C76.8208 180.342 76.6308 179.981 76.6308 179.388V175.279C76.6308 174.51 76.8208 174.033 77.2115 173.79C77.8661 173.384 78.5545 173.026 79.2703 172.719L103.871 163.617C104.403 163.227 105.064 163.014 105.745 163.014C106.426 163.014 107.086 163.227 107.619 163.617L132.219 172.719C132.953 173.025 133.659 173.383 134.331 173.79C134.552 173.976 134.72 174.209 134.821 174.468C134.923 174.728 134.954 175.006 134.912 175.279V179.388C134.912 179.981 134.711 180.361 134.394 180.458C133.689 180.557 132.97 180.518 132.283 180.342L124.216 177.188V179.134C124.25 179.363 124.214 179.595 124.111 179.805C124.008 180.015 123.844 180.194 123.636 180.322C122.953 180.625 122.193 180.749 121.439 180.682H90.0185C89.2915 180.755 88.5573 180.63 87.9068 180.322C87.697 180.196 87.5307 180.017 87.4278 179.807C87.3249 179.596 87.2896 179.363 87.3262 179.134V177.188L79.2597 180.342C78.5729 180.519 77.853 180.559 77.1481 180.458ZM130.35 194.33C129.48 194.83 128.458 195.059 127.436 194.982H84.1482C83.1726 195.026 82.2053 194.799 81.3714 194.33C80.7273 193.912 80.3156 193.026 80.3156 191.595V185.696C80.3156 184.274 80.7062 183.379 81.3714 182.96C82.2053 182.491 83.1726 182.264 84.1482 182.308H127.436C128.458 182.232 129.48 182.46 130.35 182.96C130.692 183.314 130.948 183.73 131.103 184.181C131.257 184.632 131.307 185.109 131.248 185.579V191.712C131.31 192.18 131.265 192.656 131.114 193.107C130.963 193.559 130.71 193.975 130.372 194.33H130.35ZM85.8586 216.184C84.8829 216.217 83.918 215.987 83.0818 215.522C82.4377 215.104 82.1104 214.16 82.1104 212.787V200.239C82.0587 199.753 82.1184 199.263 82.2858 198.8C82.4531 198.337 82.7244 197.912 83.0818 197.552C83.8415 196.972 84.8101 196.677 85.7952 196.725H125.631C126.678 196.649 127.716 196.945 128.534 197.552C128.873 197.908 129.128 198.324 129.284 198.774C129.44 199.225 129.494 199.7 129.442 200.171V212.826C129.442 214.198 129.189 215.084 128.608 215.503C127.752 216.037 126.726 216.291 125.694 216.223L85.8586 216.184ZM92.4468 189.453L91.391 187.779H89.9763V189.453H92.4468ZM95.0969 202.186V203.734H116.53V202.186H95.0969ZM116.53 210.645V209.156H95.0969V210.645H116.53ZM96.9657 174.033H114.651L105.813 170.763L96.9657 174.033ZM100.967 187.779H98.5811L99.6369 189.453H100.988L100.967 187.779ZM110.649 189.453H111.99L113.046 187.779H110.649V189.453ZM121.492 187.779H120.067L119.011 189.453H121.492V187.779Z" fill="white" stroke="black" stroke-miterlimit="10"/>
<path d="M147.096 179.894C146.646 179.334 146.438 178.64 146.515 177.947V175.386C146.416 174.613 146.622 173.832 147.096 173.186C147.716 172.803 148.464 172.634 149.207 172.709H160.378V170.062C160.378 169.759 160.447 169.46 160.58 169.184C160.713 168.907 160.906 168.659 161.148 168.455C161.411 168.218 161.727 168.037 162.073 167.922C162.419 167.808 162.788 167.764 163.155 167.793H171.284C171.619 167.774 171.955 167.824 172.267 167.938C172.579 168.053 172.86 168.229 173.09 168.455C173.54 168.888 173.797 169.462 173.808 170.062V172.739H179.805C180.594 172.669 181.386 172.837 182.064 173.216C182.511 173.87 182.694 174.649 182.581 175.416V176.662C183.652 174.779 184.393 172.752 184.778 170.655C184.769 170.065 184.999 169.493 185.422 169.049C185.858 168.608 186.456 168.33 187.1 168.27H193.235C193.556 168.292 193.87 168.372 194.158 168.505C194.446 168.639 194.703 168.824 194.913 169.049C195.36 169.484 195.616 170.056 195.631 170.655C195.369 175.036 194.045 179.308 191.756 183.155H196.455C196.841 183.106 197.234 183.128 197.611 183.22C197.988 183.312 198.341 183.472 198.651 183.69C199.132 184.332 199.339 185.116 199.232 185.89V188.45C199.308 189.143 199.101 189.838 198.651 190.397C198.334 190.816 197.595 190.991 196.455 190.991H184.936C184.035 191.773 183.086 192.507 182.096 193.191H193.91C194.69 193.099 195.478 193.291 196.106 193.726C196.582 194.375 196.788 195.159 196.687 195.936V198.496C196.748 199.173 196.542 199.847 196.106 200.395C195.779 200.813 195.051 200.998 193.91 200.998H171.569V202.78H190.416C191.186 202.685 191.968 202.855 192.612 203.257C193.083 203.903 193.289 204.683 193.192 205.457V217.605C193.248 218.263 193.041 218.917 192.612 219.445C192.316 219.69 191.967 219.876 191.589 219.99C191.211 220.104 190.811 220.144 190.416 220.107H173.892C173.509 220.141 173.123 220.1 172.759 219.986C172.395 219.871 172.061 219.687 171.78 219.445C171.407 218.896 171.226 218.253 171.263 217.605V215.045C171.182 214.258 171.362 213.467 171.78 212.777C172.411 212.413 173.151 212.246 173.892 212.3H179.762V210.519H160.758C160.38 210.562 159.997 210.532 159.633 210.43C159.269 210.327 158.933 210.155 158.646 209.925C158.219 209.357 158.035 208.664 158.129 207.978V203.218C153.398 204.175 148.571 204.674 143.728 204.707C143.107 204.661 142.518 204.433 142.049 204.055C141.814 203.874 141.629 203.645 141.506 203.387C141.383 203.128 141.327 202.847 141.341 202.565V197.98C141.327 197.699 141.383 197.418 141.506 197.159C141.629 196.901 141.814 196.672 142.049 196.491C142.516 196.11 143.105 195.88 143.728 195.839C150.992 195.585 158.118 193.926 164.643 190.972H144.129C143.073 190.972 142.387 190.796 142.017 190.378C141.567 189.818 141.36 189.124 141.436 188.431V185.871C141.329 185.096 141.536 184.313 142.017 183.671C142.31 183.452 142.649 183.291 143.012 183.199C143.375 183.106 143.756 183.085 144.129 183.135H160.335V180.458H149.165C148.796 180.509 148.42 180.485 148.062 180.387C147.705 180.29 147.375 180.121 147.096 179.894ZM173.765 180.487V183.164H177.06C178.027 182.331 178.931 181.437 179.762 180.487H173.765Z" fill="white" stroke="black" stroke-miterlimit="10"/>
<path d="M205.862 194.155C205.474 193.571 205.293 192.891 205.345 192.208V190.602C205.256 189.836 205.437 189.065 205.862 188.402C206.134 188.187 206.453 188.027 206.797 187.935C207.141 187.843 207.503 187.819 207.858 187.866H229.301V166.411C229.306 165.805 229.533 165.219 229.945 164.747C230.127 164.528 230.36 164.349 230.627 164.225C230.894 164.1 231.188 164.032 231.487 164.026H238.202C238.49 164.046 238.771 164.12 239.027 164.244C239.283 164.368 239.509 164.539 239.69 164.747C240.147 165.199 240.399 165.794 240.398 166.411V187.905H247.894V186.299H244.726C244.011 186.369 243.294 186.176 242.731 185.764C242.526 185.555 242.369 185.31 242.267 185.044C242.166 184.779 242.123 184.497 242.14 184.216V182.133C242.09 181.788 242.116 181.438 242.218 181.103C242.32 180.768 242.494 180.456 242.731 180.186C243.316 179.817 244.021 179.649 244.726 179.709H246.923L243.111 175.124C242.572 174.418 242.237 173.597 242.14 172.739V168.339C242.123 168.134 242.178 167.929 242.295 167.754C242.413 167.579 242.588 167.443 242.794 167.365C243.137 167.153 243.544 167.047 243.956 167.064C244.336 167.122 244.917 167.541 245.571 168.436L246.923 169.926L249.763 165.633C250.067 165.171 250.487 164.784 250.987 164.503C251.452 164.392 251.934 164.353 252.413 164.387H256.024C256.805 164.445 257.248 164.688 257.449 165.097C257.584 165.631 257.562 166.189 257.386 166.713L251.357 175.465L253.099 177.606L259.624 167.959C260.331 167.132 260.912 166.655 261.303 166.587C261.713 166.581 262.117 166.686 262.464 166.888C262.657 166.977 262.816 167.117 262.92 167.291C263.024 167.465 263.067 167.664 263.045 167.862V171.911C262.947 172.731 262.659 173.521 262.2 174.228L258.969 179.709H260.331C261.075 179.624 261.826 179.794 262.443 180.186C262.851 180.767 263.074 181.441 263.087 182.133V184.08C263.142 184.705 262.934 185.325 262.506 185.812C261.899 186.226 261.146 186.416 260.395 186.348H259.233V187.954H261.883C262.659 187.879 263.437 188.069 264.069 188.489C264.556 189.13 264.767 189.914 264.66 190.689V192.296C264.721 192.989 264.511 193.679 264.069 194.243C263.768 194.475 263.419 194.647 263.043 194.75C262.667 194.852 262.272 194.881 261.883 194.836H241.116C241.823 197.874 243.227 200.074 245.244 201.446C246.309 202.195 247.431 202.872 248.601 203.471C249.389 202.472 249.763 201.246 249.657 200.015V198.584C249.633 197.974 249.863 197.378 250.301 196.92C250.498 196.699 250.744 196.522 251.023 196.399C251.302 196.276 251.607 196.211 251.917 196.209H258.368C258.699 196.199 259.028 196.258 259.331 196.381C259.635 196.504 259.904 196.688 260.12 196.92C260.554 197.38 260.784 197.974 260.764 198.584V201.388C260.838 203.222 260.477 205.049 259.708 206.742C262.158 207.277 263.52 207.715 263.773 207.988C264.127 208.392 264.31 208.9 264.291 209.419V214.062C264.309 214.348 264.261 214.633 264.15 214.9C264.039 215.167 263.867 215.409 263.647 215.61C263.228 215.989 262.679 216.223 262.095 216.272C257.957 216.213 253.865 215.464 250.016 214.062C246.021 215.56 241.743 216.311 237.431 216.272C236.853 216.199 236.313 215.968 235.879 215.61C235.649 215.413 235.467 215.173 235.345 214.906C235.223 214.639 235.164 214.352 235.171 214.062V209.419C235.132 208.907 235.293 208.399 235.625 207.988C235.846 207.792 236.111 207.642 236.401 207.55C236.691 207.457 236.999 207.424 237.304 207.453C233.203 204.21 230.499 199.721 229.681 194.798H220.316V196.287L228.129 200.239C228.906 200.637 229.661 201.073 230.389 201.544C230.869 202.212 231.075 203.016 230.969 203.812V207.706C231.033 208.398 230.827 209.088 230.389 209.653C229.945 210.013 229.164 209.945 228.129 209.409L220.126 205.243C219.619 207.839 218.373 210.265 216.515 212.271C213.742 214.867 211.028 216.165 208.375 216.165C207.801 216.08 207.265 215.851 206.823 215.503C206.604 215.301 206.433 215.059 206.322 214.792C206.211 214.526 206.162 214.24 206.179 213.955V209.39C206.179 208.796 206.823 207.968 208.121 206.829C209.42 205.691 210.117 203.909 210.117 201.115V194.749H207.858C206.823 194.749 206.179 194.574 205.862 194.155ZM207.34 185.764C206.982 185.317 206.799 184.771 206.823 184.216V182.133C206.741 181.448 206.924 180.758 207.34 180.186C207.925 179.811 208.637 179.641 209.346 179.709H211.542L207.604 175.124C207.184 174.381 206.919 173.572 206.823 172.739V168.339C206.811 168.143 206.86 167.948 206.962 167.776C207.065 167.604 207.218 167.461 207.404 167.365C207.74 167.141 208.151 167.034 208.565 167.064C209.019 167.122 209.621 167.541 210.244 168.436L211.542 169.926L214.446 165.633C214.712 165.145 215.141 164.749 215.671 164.503C216.114 164.395 216.575 164.355 217.033 164.387H220.738C221.005 164.376 221.269 164.437 221.498 164.564C221.727 164.69 221.911 164.875 222.027 165.097C222.238 165.622 222.215 166.203 221.963 166.713L216.03 175.523L217.835 177.665L224.17 168.018C224.824 167.19 225.405 166.713 225.785 166.645C226.197 166.633 226.602 166.739 226.947 166.947C227.151 167.026 227.324 167.163 227.439 167.337C227.555 167.512 227.608 167.716 227.591 167.92V171.97C227.571 172.811 227.256 173.624 226.693 174.287L223.462 179.767H224.824C225.566 179.706 226.309 179.874 226.936 180.244C227.409 180.795 227.639 181.491 227.58 182.191V184.138C227.615 184.453 227.576 184.771 227.465 185.07C227.354 185.369 227.173 185.642 226.936 185.871C226.33 186.287 225.576 186.478 224.824 186.406H209.346C208.982 186.43 208.617 186.386 208.272 186.275C207.927 186.165 207.61 185.991 207.34 185.764Z" fill="white" stroke="black" stroke-miterlimit="10"/>
<path d="M319.33 215.464C318.466 216.074 317.381 216.353 316.3 216.243H304.148C302.342 216.243 301.434 215.406 301.434 213.858V207.725C301.39 207.389 301.43 207.048 301.551 206.729C301.673 206.41 301.873 206.121 302.135 205.885C302.398 205.648 302.716 205.471 303.065 205.366C303.414 205.262 303.784 205.233 304.148 205.282H307.822V191.828H299.882V198.292C299.945 203.948 298.404 208.348 295.363 211.512C294.017 212.966 292.345 214.134 290.462 214.936C288.579 215.737 286.53 216.153 284.457 216.155H282.345C281.707 216.095 281.102 215.865 280.603 215.493C280.382 215.293 280.21 215.051 280.099 214.784C279.988 214.517 279.94 214.231 279.959 213.945V207.579C279.941 207.302 279.99 207.026 280.101 206.768C280.212 206.511 280.384 206.279 280.603 206.09C281.069 205.671 281.694 205.437 282.345 205.437H283.253C284.675 205.443 286.042 204.928 287.054 204.006C287.962 203.111 288.479 201.271 288.479 198.526V191.799H284.024C283.243 191.869 282.458 191.727 281.764 191.39C281.552 191.199 281.389 190.965 281.288 190.707C281.188 190.449 281.152 190.174 281.184 189.901V184.897L274.205 188.889C273.149 189.366 272.463 189.424 272.093 189.181C271.888 188.962 271.735 188.706 271.646 188.429C271.556 188.152 271.533 187.861 271.576 187.574V180.371C271.468 179.596 271.675 178.813 272.156 178.171C272.807 177.596 273.514 177.078 274.268 176.623L295.838 164.357C296.81 163.822 297.517 163.647 297.95 163.822C298.383 163.997 298.594 164.601 298.594 165.769V172.495C298.701 173.403 298.498 174.318 298.013 175.114C297.301 175.705 296.522 176.224 295.69 176.662L286.135 182.142H315.054L305.552 176.662C304.72 176.224 303.941 175.705 303.229 175.114C302.744 174.318 302.541 173.403 302.648 172.495V165.769C302.648 164.64 302.902 163.978 303.292 163.822C303.683 163.666 304.454 163.822 305.404 164.357L326.964 176.623C327.719 177.077 328.426 177.595 329.075 178.171C329.556 178.813 329.763 179.596 329.656 180.371V187.584C329.699 187.87 329.675 188.162 329.586 188.439C329.497 188.716 329.344 188.972 329.139 189.19C328.758 189.434 328.083 189.375 327.027 188.898L320.249 185.004V212.446C320.343 213.521 320.017 214.591 319.33 215.464Z" fill="white" stroke="black" stroke-miterlimit="10"/>
<path d="M27.43 185.345V214.549C27.4777 214.876 27.4508 215.208 27.3508 215.525C27.2507 215.842 27.0799 216.136 26.8493 216.389C26.3906 216.728 25.822 216.916 25.2339 216.924H19.163C18.5602 216.95 17.9663 216.782 17.4842 216.447C17.2566 216.181 17.0882 215.877 16.9885 215.551C16.8889 215.225 16.86 214.885 16.9036 214.549V196.442C16.2091 197.097 15.3721 197.609 14.4477 197.945C13.5234 198.28 12.5324 198.432 11.54 198.389C11.18 198.457 10.8082 198.449 10.4519 198.366C10.0956 198.284 9.76397 198.128 9.4812 197.912C8.9902 197.23 8.78045 196.408 8.88995 195.595V190.825C8.84254 189.972 9.07032 189.126 9.54455 188.392C10.0323 187.748 10.7321 187.267 11.54 187.019C14.3801 186.659 16.7029 184.284 18.4556 179.816C20.1102 175.716 21.0025 171.388 21.0951 167.015C21.1506 166.43 21.4272 165.882 21.8764 165.467C22.349 165.057 22.97 164.825 23.6185 164.815H28.4647C28.8076 164.803 29.1495 164.855 29.4704 164.967C29.7913 165.079 30.0848 165.249 30.3334 165.467C30.5574 165.668 30.7354 165.909 30.8569 166.175C30.9784 166.441 31.041 166.726 31.0409 167.015V170.227C30.5869 176.409 29.3621 181.471 27.43 185.345Z" fill="white" stroke="black" stroke-miterlimit="10"/>
<path d="M40.4059 187.214C40.7259 187.208 41.0432 187.268 41.334 187.391C41.6248 187.515 41.8815 187.697 42.0846 187.925C42.3199 188.145 42.5047 188.407 42.6281 188.695C42.7514 188.983 42.8108 189.29 42.8026 189.599V198.701C42.8026 203.053 41.8946 206.031 40.0259 207.638C38.2343 209.213 35.8496 210.085 33.3742 210.071C32.7353 210.021 32.1279 209.794 31.6321 209.419C31.4163 209.227 31.2471 208.995 31.1361 208.738C31.025 208.481 30.9746 208.206 30.9881 207.93V203.822C30.9704 203.545 31.0188 203.268 31.1301 203.011C31.2414 202.753 31.4129 202.522 31.6321 202.332C32.1166 201.94 32.7304 201.71 33.3742 201.68C33.6329 201.658 33.8793 201.568 34.0849 201.421C34.2905 201.275 34.4468 201.078 34.5356 200.853C34.8468 200.092 34.98 199.279 34.9263 198.468V189.599C34.9359 188.981 35.187 188.386 35.6336 187.925C35.83 187.705 36.0765 187.527 36.3556 187.404C36.6348 187.281 36.9398 187.216 37.2491 187.214H40.4059Z" fill="white" stroke="black" stroke-miterlimit="10"/>
<path d="M62.3668 208.367C62.1474 208.218 61.9657 208.027 61.8345 207.807C61.7032 207.587 61.6255 207.343 61.6066 207.092V192.704C61.623 192.448 61.6993 192.197 61.8305 191.971C61.9618 191.744 62.1447 191.546 62.3668 191.39C62.8534 191.019 63.4669 190.819 64.0983 190.826H67.4874C68.1624 190.809 68.8227 191.009 69.3562 191.39C69.5707 191.547 69.7439 191.747 69.8627 191.975C69.9816 192.202 70.0431 192.452 70.0425 192.704V207.053C70.0413 207.3 69.9789 207.543 69.8599 207.764C69.7409 207.985 69.5686 208.178 69.3562 208.328C68.838 208.741 68.1715 208.959 67.4874 208.942H64.0983C63.4631 208.959 62.8444 208.754 62.3668 208.367Z" fill="white" stroke="black" stroke-miterlimit="10"/>
<path d="M68.1526 169.439C67.6158 169.073 66.9614 168.885 66.2944 168.903H62.9053C62.6887 168.906 62.4729 168.929 62.2612 168.971H46.2762V167.024C46.2745 166.715 46.2065 166.408 46.076 166.122C45.9456 165.837 45.7553 165.578 45.516 165.36C45.2861 165.131 45.0066 164.95 44.6955 164.827C44.3844 164.705 44.0488 164.644 43.7106 164.649H40.332C39.9948 164.65 39.6614 164.714 39.3513 164.836C39.0412 164.958 38.7607 165.136 38.5266 165.36C38.2973 165.581 38.1184 165.842 38.0005 166.128C37.8826 166.414 37.8282 166.719 37.8403 167.024V172.865C37.8921 173.298 37.8384 173.736 37.6831 174.147C37.5279 174.557 37.2749 174.931 36.9428 175.24C36.3823 175.76 35.6258 176.06 34.8312 176.078C34.1473 176.099 33.4904 176.329 32.9625 176.73C32.7306 176.913 32.5472 177.142 32.4264 177.4C32.3056 177.658 32.2506 177.938 32.2656 178.219V182.269C32.2494 182.558 32.3036 182.848 32.4242 183.115C32.5447 183.383 32.7286 183.623 32.9625 183.817C33.505 184.194 34.1535 184.421 34.8312 184.469H35.6548C38.2449 184.401 40.7431 183.569 42.7815 182.094C43.8199 181.32 44.6267 180.315 45.1254 179.173H46.7197V207.277C46.7492 207.452 46.7342 207.631 46.6756 207.8C46.6171 207.968 46.5167 208.122 46.3824 208.249C46.2482 208.375 46.0837 208.471 45.9022 208.529C45.7206 208.587 45.5269 208.605 45.3365 208.582H45.062C44.2852 208.496 43.5004 208.665 42.8448 209.059C42.6 209.306 42.4172 209.6 42.3095 209.919C42.2019 210.239 42.1719 210.577 42.2219 210.908V214.948C42.1895 215.224 42.2291 215.503 42.3375 215.762C42.4459 216.021 42.6198 216.253 42.8448 216.437C43.5211 216.78 44.2941 216.926 45.062 216.856H54.5643C55.377 216.939 56.198 216.793 56.9188 216.437C57.1177 216.238 57.2692 216.003 57.3637 215.746C57.4583 215.49 57.4937 215.218 57.4678 214.948V179.212H60.4769V184.274C60.4946 184.516 60.5724 184.75 60.7043 184.96C60.8361 185.169 61.0184 185.347 61.2371 185.481C61.7179 185.863 62.3344 186.067 62.9686 186.056H66.3578C67.0325 186.08 67.6933 185.875 68.216 185.481C68.4276 185.345 68.6012 185.165 68.7223 184.955C68.8435 184.745 68.9088 184.512 68.9128 184.274V170.646C68.8967 170.404 68.8196 170.169 68.6876 169.959C68.5556 169.75 68.3724 169.571 68.1526 169.439Z" fill="white" stroke="black" stroke-miterlimit="10"/>
</g>
<defs>
<clipPath id="clip0_8_70">
<rect width="381" height="220.411" fill="white" transform="translate(0 0.144043)"/>
</clipPath>
</defs>
</svg>
