<svg width="39" height="39" viewBox="0 0 39 39" fill="none" xmlns="http://www.w3.org/2000/svg">
<path d="M17.2332 4.86015C18.3432 5.82015 19.2732 7.50015 19.3932 8.97015C22.3032 11.1301 25.0632 5.31015 17.5032 4.65015L17.2332 4.86015ZM29.5032 10.4701C29.2932 11.5201 28.9632 12.8401 28.6632 13.7101L28.9932 13.9201C30.1932 13.2001 31.7832 11.9701 32.6832 11.0401C33.2832 10.9801 33.6132 10.9501 33.8532 10.7101L30.9432 7.92015L29.3232 9.60015H10.3632C10.2732 9.06015 10.1232 8.49015 9.91321 7.92015H9.49321C9.58321 9.57015 8.35321 11.0401 7.2732 11.6101C6.3432 12.0601 5.74321 12.8401 6.04321 13.8601C6.43321 14.9701 7.87321 15.1801 8.80321 14.5801C9.82321 13.9801 10.6032 12.5401 10.4832 10.4701H29.5032ZM15.0732 25.6501H24.5832V30.4201H15.0732V25.6501ZM24.5832 14.8801V19.3801H15.0732V14.8801H24.5832ZM24.5832 24.8101H15.0732V20.2501H24.5832V24.8101ZM29.0532 30.4201H27.4632V15.2101C28.2132 15.0901 28.6032 14.9101 28.8132 14.6401L25.6032 12.2701L24.2832 14.0101H15.3732L12.3132 12.7501V30.4201H5.98321L6.25321 31.2901H33.0432C33.4632 31.2901 33.7632 31.1401 33.8532 30.8101C32.6832 29.7001 30.7332 28.0801 30.7332 28.0801L29.0532 30.4201Z" fill="black"/>
<path fill-rule="evenodd" clip-rule="evenodd" d="M19.4118 37C29.028 37 36.8235 29.2045 36.8235 19.5883C36.8235 9.97203 29.028 2.17651 19.4118 2.17651C9.79551 2.17651 2 9.97203 2 19.5883C2 29.2045 9.79551 37 19.4118 37ZM19.4118 39C30.1326 39 38.8235 30.3091 38.8235 19.5883C38.8235 8.86746 30.1326 0.176514 19.4118 0.176514C8.69094 0.176514 0 8.86746 0 19.5883C0 30.3091 8.69094 39 19.4118 39Z" fill="black"/>
</svg>
