<svg width="39" height="39" viewBox="0 0 39 39" fill="none" xmlns="http://www.w3.org/2000/svg">
<path d="M25.9332 7.17002V11.88H13.0332L9.82318 10.59V17.28C9.82318 19.53 10.9032 19.86 15.0432 19.86H21.7332C30.8232 19.86 32.2932 19.53 32.2932 18.09C32.2932 17.55 31.9032 17.22 30.8232 16.98L30.7332 13.2H30.3732C29.7732 15.06 29.3832 16.23 28.9932 16.83C28.7532 17.19 28.5432 17.31 27.7932 17.37C26.9232 17.46 24.6132 17.46 21.9132 17.46H14.8932C12.8532 17.46 12.6432 17.37 12.6432 16.83V12.75H25.9332V14.37H26.3832C27.3132 14.37 28.7532 13.83 28.7832 13.65V7.68002C29.3832 7.56002 29.8032 7.29002 29.9832 7.05002L27.0132 4.77002L25.6332 6.30002H9.04318L9.31318 7.17002H25.9332ZM17.9232 21.03C19.3332 22.38 20.9232 24.63 21.1932 26.61C23.8332 28.56 26.0232 22.89 18.1932 20.82L17.9232 21.03ZM9.52318 22.38C9.58318 24.75 8.17318 26.76 6.91318 27.54C6.07318 28.02 5.50318 28.86 5.89318 29.82C6.34318 30.78 7.66318 30.9 8.68318 30.21C10.1832 29.22 11.4132 26.43 9.97318 22.38H9.52318ZM27.2832 24.99H26.9232C26.4132 26.7 25.9932 27.99 25.6632 28.5C25.4832 28.8 25.3332 28.92 24.8532 28.95C24.3432 28.98 23.0232 29.01 21.4632 29.01H17.5332C16.2132 29.01 16.0632 28.86 16.0632 28.41V22.89C16.6332 22.8 16.9332 22.53 16.9932 22.14L13.2132 21.81V28.98C13.2132 31.02 13.9032 31.53 17.0832 31.53H21.2232C27.2232 31.53 28.5132 31.08 28.5132 29.82C28.5132 29.28 28.2732 28.95 27.3432 28.62L27.2832 24.99ZM27.0432 22.41C28.7832 24.21 30.6132 27 30.9132 29.4C33.8232 31.71 36.2232 25.29 27.3432 22.2L27.0432 22.41Z" fill="black"/>
<path fill-rule="evenodd" clip-rule="evenodd" d="M19.4118 37C29.028 37 36.8235 29.2045 36.8235 19.5883C36.8235 9.97203 29.028 2.17651 19.4118 2.17651C9.79551 2.17651 2 9.97203 2 19.5883C2 29.2045 9.79551 37 19.4118 37ZM19.4118 39C30.1326 39 38.8235 30.3091 38.8235 19.5883C38.8235 8.86746 30.1326 0.176514 19.4118 0.176514C8.69094 0.176514 0 8.86746 0 19.5883C0 30.3091 8.69094 39 19.4118 39Z" fill="black"/>
</svg>
